<mxfile host="Electron" modified="2023-04-18T01:22:26.904Z" agent="Mozilla/5.0 (Windows NT 10.0; Win64; x64) AppleWebKit/537.36 (KHTML, like Gecko) draw.io/21.1.2 Chrome/106.0.5249.199 Electron/21.4.3 Safari/537.36" etag="omjeWsCw08RBEOvcVws_" version="21.1.2" type="device">
  <diagram name="Page-1" id="f_m83RwDPW11mM0En3Lf">
    <mxGraphModel dx="1418" dy="820" grid="1" gridSize="10" guides="1" tooltips="1" connect="1" arrows="1" fold="1" page="1" pageScale="1" pageWidth="850" pageHeight="1100" math="0" shadow="0">
      <root>
        <mxCell id="0" />
        <mxCell id="1" parent="0" />
        <mxCell id="zlEI8qq8WQMwk2rl4EPj-16" style="edgeStyle=orthogonalEdgeStyle;rounded=0;orthogonalLoop=1;jettySize=auto;html=1;exitX=0.5;exitY=1;exitDx=0;exitDy=0;entryX=0;entryY=0.5;entryDx=0;entryDy=0;curved=1;sketch=1;curveFitting=1;jiggle=2;" edge="1" parent="1" source="zlEI8qq8WQMwk2rl4EPj-1" target="zlEI8qq8WQMwk2rl4EPj-9">
          <mxGeometry relative="1" as="geometry" />
        </mxCell>
        <mxCell id="zlEI8qq8WQMwk2rl4EPj-1" value="T1" style="ellipse;whiteSpace=wrap;html=1;aspect=fixed;fillColor=#d5e8d4;strokeColor=#82b366;fontSize=18;sketch=1;curveFitting=1;jiggle=2;" vertex="1" parent="1">
          <mxGeometry x="403" y="410" width="60" height="60" as="geometry" />
        </mxCell>
        <mxCell id="zlEI8qq8WQMwk2rl4EPj-15" style="edgeStyle=orthogonalEdgeStyle;rounded=0;orthogonalLoop=1;jettySize=auto;html=1;exitX=0.5;exitY=0;exitDx=0;exitDy=0;entryX=1;entryY=0.5;entryDx=0;entryDy=0;curved=1;sketch=1;curveFitting=1;jiggle=2;" edge="1" parent="1" source="zlEI8qq8WQMwk2rl4EPj-2" target="zlEI8qq8WQMwk2rl4EPj-3">
          <mxGeometry relative="1" as="geometry" />
        </mxCell>
        <mxCell id="zlEI8qq8WQMwk2rl4EPj-2" value="T2" style="ellipse;whiteSpace=wrap;html=1;aspect=fixed;fillColor=#ffe6cc;strokeColor=#d79b00;fontSize=18;sketch=1;curveFitting=1;jiggle=2;" vertex="1" parent="1">
          <mxGeometry x="597" y="410" width="60" height="60" as="geometry" />
        </mxCell>
        <mxCell id="zlEI8qq8WQMwk2rl4EPj-7" value="" style="group" vertex="1" connectable="0" parent="1">
          <mxGeometry x="500" y="339" width="60" height="60" as="geometry" />
        </mxCell>
        <mxCell id="zlEI8qq8WQMwk2rl4EPj-3" value="R1" style="whiteSpace=wrap;html=1;aspect=fixed;rounded=0;glass=0;shadow=0;fillColor=#dae8fc;strokeColor=#6c8ebf;verticalAlign=top;fontSize=18;sketch=1;curveFitting=1;jiggle=2;" vertex="1" parent="zlEI8qq8WQMwk2rl4EPj-7">
          <mxGeometry width="60" height="60" as="geometry" />
        </mxCell>
        <mxCell id="zlEI8qq8WQMwk2rl4EPj-5" value="" style="sketch=0;pointerEvents=1;shadow=0;dashed=0;html=1;strokeColor=none;labelPosition=center;verticalLabelPosition=bottom;verticalAlign=top;outlineConnect=0;align=center;shape=mxgraph.office.security.lock_protected;fillColor=#2072B8;" vertex="1" parent="zlEI8qq8WQMwk2rl4EPj-7">
          <mxGeometry x="22.875" y="30" width="14.25" height="24" as="geometry" />
        </mxCell>
        <mxCell id="zlEI8qq8WQMwk2rl4EPj-8" value="" style="group;sketch=1;curveFitting=1;jiggle=2;" vertex="1" connectable="0" parent="1">
          <mxGeometry x="500" y="481" width="60" height="60" as="geometry" />
        </mxCell>
        <mxCell id="zlEI8qq8WQMwk2rl4EPj-9" value="R2" style="whiteSpace=wrap;html=1;aspect=fixed;rounded=0;glass=0;shadow=0;fillColor=#e1d5e7;strokeColor=#9673a6;verticalAlign=top;fontSize=18;sketch=1;curveFitting=1;jiggle=2;" vertex="1" parent="zlEI8qq8WQMwk2rl4EPj-8">
          <mxGeometry width="60" height="60" as="geometry" />
        </mxCell>
        <mxCell id="zlEI8qq8WQMwk2rl4EPj-10" value="" style="sketch=0;pointerEvents=1;shadow=0;dashed=0;html=1;strokeColor=none;labelPosition=center;verticalLabelPosition=bottom;verticalAlign=top;outlineConnect=0;align=center;shape=mxgraph.office.security.lock_protected;fillColor=#593380;" vertex="1" parent="zlEI8qq8WQMwk2rl4EPj-8">
          <mxGeometry x="22.875" y="30" width="14.25" height="24" as="geometry" />
        </mxCell>
        <mxCell id="zlEI8qq8WQMwk2rl4EPj-14" style="edgeStyle=orthogonalEdgeStyle;rounded=0;orthogonalLoop=1;jettySize=auto;html=1;exitX=0;exitY=0.5;exitDx=0;exitDy=0;entryX=0.5;entryY=0;entryDx=0;entryDy=0;curved=1;" edge="1" parent="1" source="zlEI8qq8WQMwk2rl4EPj-3" target="zlEI8qq8WQMwk2rl4EPj-1">
          <mxGeometry relative="1" as="geometry" />
        </mxCell>
        <mxCell id="zlEI8qq8WQMwk2rl4EPj-17" style="edgeStyle=orthogonalEdgeStyle;rounded=0;orthogonalLoop=1;jettySize=auto;html=1;exitX=1;exitY=0.5;exitDx=0;exitDy=0;entryX=0.5;entryY=1;entryDx=0;entryDy=0;curved=1;sketch=1;curveFitting=1;jiggle=2;" edge="1" parent="1" source="zlEI8qq8WQMwk2rl4EPj-9" target="zlEI8qq8WQMwk2rl4EPj-2">
          <mxGeometry relative="1" as="geometry" />
        </mxCell>
      </root>
    </mxGraphModel>
  </diagram>
</mxfile>
